<?xml version="1.0" standalone="no"?>
<!DOCTYPE svg PUBLIC "-//W3C//DTD SVG 20010904//EN"
 "http://www.w3.org/TR/2001/REC-SVG-20010904/DTD/svg10.dtd">
<svg version="1.0" xmlns="http://www.w3.org/2000/svg"
 width="277.000000pt" height="277.000000pt" viewBox="0 0 277.000000 277.000000"
 preserveAspectRatio="xMidYMid meet">
<metadata>
Created by potrace 1.11, written by Peter Selinger 2001-2013
</metadata>
<g transform="translate(0.000000,277.000000) scale(0.100000,-0.100000)"
fill="#000000" stroke="none">
<path d="M703 2637 c-22 -9 -33 -34 -33 -74 0 -12 -5 -25 -10 -28 -7 -4 -8 3
-4 21 5 19 4 25 -5 20 -6 -4 -11 -15 -11 -26 0 -16 -8 -18 -60 -16 -57 3 -60
2 -60 -21 0 -21 -4 -23 -48 -23 -90 0 -82 103 -82 -1098 l0 -1062 23 -14 c19
-13 162 -15 1010 -14 l987 0 0 284 0 284 -37 18 c-21 9 -39 24 -39 32 -1 8 -2
41 -3 72 -1 55 -2 58 -34 71 l-32 14 0 689 c0 644 -1 690 -18 707 -16 16 -52
17 -492 16 -261 0 -479 2 -484 5 -9 6 -88 11 -336 22 -82 3 -143 10 -146 16
-4 6 -5 23 -2 37 9 53 -36 90 -84 68z m57 -22 c11 -10 14 -26 12 -55 -2 -22
-8 -38 -12 -35 -5 3 -6 15 -4 28 4 20 3 20 -8 -3 -7 -14 -20 -24 -28 -24 -8 1
-21 2 -28 3 -9 1 -11 11 -6 39 11 61 39 79 74 47z"/>
</g>
</svg>
